<svg width="16" height="16" viewBox="0 0 16 16" fill="none" xmlns="http://www.w3.org/2000/svg">
<g clip-path="url(#clip0_52741_1894)">
<path d="M3.9495 3.75364C3.63873 4.04606 3.6238 4.53502 3.91614 4.84585L5.12076 6.1267C5.27272 6.28828 5.15816 6.55329 4.93635 6.55329H0.772051C0.345659 6.55329 0 6.89895 0 7.32534V7.32534C0 7.75173 0.345659 8.09739 0.772051 8.09739H4.93632C5.15814 8.09739 5.27271 8.36241 5.12074 8.524L3.91613 9.80483C3.62379 10.1157 3.63871 10.6046 3.94946 10.8971V10.8971C4.26038 11.1897 4.74965 11.1747 5.04211 10.8637L7.6352 8.10573C8.04752 7.66721 8.04752 6.98359 7.6352 6.54507L5.04205 3.78709C4.74962 3.47607 4.2604 3.46109 3.9495 3.75364V3.75364Z" fill="url(#paint0_linear_52741_1894)"/>
<path d="M6.21012 11.2539C6.21012 10.8743 6.51784 10.5666 6.89744 10.5666H7.04256C7.342 10.5666 7.58475 10.8093 7.58475 11.1088V11.1088C7.58475 11.4082 7.8275 11.651 8.12695 11.651H11.1053C13.0497 11.651 14.6259 10.0748 14.6259 8.13041V6.88375C14.6259 4.93941 13.0497 3.3632 11.1053 3.3632H8.12695C7.8275 3.3632 7.58475 3.60595 7.58475 3.9054V3.9054C7.58475 4.20484 7.342 4.44759 7.04255 4.44759H6.89744C6.51784 4.44759 6.21012 4.13987 6.21012 3.76028V3.2238C6.21012 2.54791 6.75803 2 7.43392 2H11.1053C13.8088 2 16.0005 4.19165 16.0005 6.89519V8.11898C16.0005 10.8225 13.8088 13.0142 11.1053 13.0142H7.43392C6.75803 13.0142 6.21012 12.4663 6.21012 11.7904V11.2539Z" fill="url(#paint1_linear_52741_1894)"/>
</g>
<defs>
<linearGradient id="paint0_linear_52741_1894" x1="4.18445" y1="3.22388" x2="4.18445" y2="11.4269" gradientUnits="userSpaceOnUse">
<stop stop-color="#A154F2"/>
<stop offset="1" stop-color="#6202EE"/>
</linearGradient>
<linearGradient id="paint1_linear_52741_1894" x1="11.1053" y1="2" x2="11.1053" y2="13.0142" gradientUnits="userSpaceOnUse">
<stop stop-color="#A154F2"/>
<stop offset="1" stop-color="#6202EE"/>
</linearGradient>
<clipPath id="clip0_52741_1894">
<rect width="16" height="16" fill="white"/>
</clipPath>
</defs>
</svg>
