<svg width="0" height="0" class="hidden">
  <symbol fill='none' xmlns="http://www.w3.org/2000/svg" viewBox="0 0 16 16" id="checkmark-off">
    <g clip-path="url(#clip0_52741_1931)">
      <circle cx="8" cy="8" r="7.5"></circle>
    </g>
    <defs>
      <clipPath id="clip0_52741_1931">
        <rect width="16" height="16"></rect>
      </clipPath>
    </defs>
  </symbol>
  <symbol stroke="none" xmlns="http://www.w3.org/2000/svg" viewBox="0 0 16 16" id="checkmark-on">
    <path d="M8 16C12.4113 16 16 12.4113 16 8C16 3.58875 12.4113 0 8 0C3.58875 0 0 3.58875 0 8C0 12.4113 3.58875 16 8 16ZM4.8845 7.56725L6.623 9.2845L10.76 4.18L12.033 5.30275L6.75725 11.8118L3.73825 8.8305L4.8845 7.56725Z"></path>
  </symbol>
  <symbol stroke="none" xmlns="http://www.w3.org/2000/svg" viewBox="0 0 16 16" id="chevron-filled">
    <path fill-rule="evenodd" clip-rule="evenodd" d="M4.04469 6.29339C4.12576 6.11474 4.30382 6 4.50001 6H11.5C11.6962 6 11.8743 6.11474 11.9553 6.29339C12.0364 6.47205 12.0055 6.68161 11.8763 6.82925L8.3763 10.8293C8.28135 10.9378 8.14419 11 8.00001 11C7.85583 11 7.71866 10.9378 7.62372 10.8293L4.12372 6.82925C3.99453 6.68161 3.96362 6.47205 4.04469 6.29339Z" ></path>
  </symbol>
  <symbol stroke="none" xmlns="http://www.w3.org/2000/svg" viewBox="0 0 16 16" id="chevron">
    <g clip-path="url(#clip0_52741_1950)">
      <path d="M12.138 0.195503C12.3987 0.456154 12.3987 0.877489 12.138 1.13814L5.27616 8.00002L12.138 14.8619C12.3987 15.1225 12.3987 15.5439 12.138 15.8045C11.8774 16.0652 11.456 16.0652 11.1954 15.8045L3.86218 8.47133C3.73219 8.34133 3.66685 8.17068 3.66685 7.99999C3.66685 7.82931 3.73219 7.65866 3.86218 7.52866L11.1954 0.195471C11.456 -0.065148 11.8774 -0.0651478 12.138 0.195503Z"></path>
    </g>
    <defs>
      <clipPath id="clip0_52741_1950">
        <rect width="16" height="16" transform="matrix(1.19249e-08 -1 -1 -1.19249e-08 16 16)"></rect>
      </clipPath>
    </defs>
  </symbol>
  <symbol stroke="none" xmlns="http://www.w3.org/2000/svg" viewBox="0 0 16 16" id="close">
    <g clip-path="url(#clip0_52741_1935)">
      <path d="M13.0867 2.65687L8.31371 7.42984L3.54074 2.65687C3.29665 2.41278 2.90094 2.41278 2.65685 2.65687C2.41277 2.90095 2.41277 3.29667 2.65685 3.54075L7.42982 8.31372L2.65685 13.0867C2.41277 13.3308 2.41277 13.7265 2.65685 13.9706C2.90094 14.2147 3.29665 14.2147 3.54074 13.9706L8.31371 9.1976L13.0867 13.9706C13.3308 14.2147 13.7265 14.2147 13.9706 13.9706C14.2146 13.7265 14.2146 13.3308 13.9706 13.0867L9.19759 8.31372L13.9706 3.54075C14.2146 3.29667 14.2146 2.90095 13.9706 2.65687C13.7265 2.41278 13.3308 2.41278 13.0867 2.65687Z"></path>
    </g>
    <defs>
      <clipPath id="clip0_52741_1935">
        <rect width="16" height="16" fill="white"></rect>
      </clipPath>
    </defs>
  </symbol>
  <symbol stroke="none" xmlns="http://www.w3.org/2000/svg" viewBox="0 0 16 16" id="delete">
    <path d="M2.7998 14.1333C2.7998 15.1623 3.63697 16 4.66647 16H12.1332C13.1627 16 13.9999 15.1623 13.9999 14.1333V4.79993H2.7998V14.1333Z" ></path>
    <path d="M10.2286 1.06667V0H6.57145V1.06667H2V3.20001H14.8001V1.06667H10.2286Z" ></path>
  </symbol>
  <symbol stroke="none" xmlns="http://www.w3.org/2000/svg" viewBox="0 0 16 16" id="device">
    <path d="M14.5938 8.93753V8.34375C14.5938 7.73266 14.2018 7.21163 13.6562 7.01813V1.46875C13.6562 1.20987 13.4464 1 13.1875 1C12.9286 1 12.7188 1.20987 12.7188 1.46875V7.01813C12.1732 7.21163 11.7812 7.73266 11.7812 8.34375V8.93753H4.21875V8.34375C4.21875 7.73266 3.82684 7.21163 3.28125 7.01813V1.46875C3.28125 1.20987 3.07138 1 2.8125 1C2.55362 1 2.34375 1.20987 2.34375 1.46875V7.01813C1.79816 7.21163 1.40625 7.73266 1.40625 8.34375V8.93753C0.630844 8.93753 0 9.56837 0 10.3438V13.1563C0 13.8187 0.460531 14.3752 1.07812 14.5235V14.5938C1.07812 14.8526 1.288 15.0625 1.54688 15.0625C1.80575 15.0625 2.01562 14.8526 2.01562 14.5938V14.5625H13.9844V14.5938C13.9844 14.8526 14.1942 15.0625 14.4531 15.0625C14.712 15.0625 14.9219 14.8526 14.9219 14.5938V14.5234C15.5395 14.3752 16 13.8187 16 13.1563V10.3438C16 9.56837 15.3692 8.93753 14.5938 8.93753ZM12.7188 8.34375C12.7188 8.08528 12.929 7.875 13.1875 7.875C13.446 7.875 13.6562 8.08528 13.6562 8.34375V8.9375H12.7188V8.34375ZM2.34375 8.34375C2.34375 8.08528 2.55403 7.875 2.8125 7.875C3.07097 7.875 3.28125 8.08528 3.28125 8.34375V8.9375H2.34375V8.34375ZM15.0625 13.1563C15.0625 13.4148 14.8522 13.625 14.5938 13.625H1.40625C1.14778 13.625 0.9375 13.4147 0.9375 13.1563V10.3438C0.9375 10.0853 1.14778 9.87503 1.40625 9.87503H14.5938C14.8522 9.87503 15.0625 10.0853 15.0625 10.3438V13.1563Z"></path>
    <path d="M2.34375 11.2812C2.08556 11.2812 1.875 11.4918 1.875 11.75C1.875 12.0082 2.08556 12.2188 2.34375 12.2188C2.60194 12.2188 2.8125 12.0082 2.8125 11.75C2.81253 11.4918 2.60194 11.2812 2.34375 11.2812Z"></path>
    <path d="M4.21875 11.2812C3.96056 11.2812 3.75 11.4918 3.75 11.75C3.75 12.0082 3.96056 12.2188 4.21875 12.2188C4.47694 12.2188 4.68751 12.0082 4.68751 11.75C4.68751 11.4918 4.47694 11.2812 4.21875 11.2812Z"></path>
    <path d="M6.09375 11.2812C5.83556 11.2812 5.625 11.4918 5.625 11.75C5.625 12.0082 5.83556 12.2188 6.09375 12.2188C6.35194 12.2188 6.5625 12.0082 6.5625 11.75C6.5625 11.4918 6.35194 11.2812 6.09375 11.2812Z"></path>
    <path d="M13.6562 11.2812H8.71875C8.45987 11.2812 8.25 11.4911 8.25 11.75C8.25 12.0089 8.45987 12.2188 8.71875 12.2188H13.6562C13.9151 12.2188 14.125 12.0089 14.125 11.75C14.125 11.4911 13.9151 11.2812 13.6562 11.2812Z"></path>
  </symbol>
  <symbol stroke="none" xmlns="http://www.w3.org/2000/svg" viewBox="0 0 16 16" id="edit">
    <g clip-path="url(#clip0_52741_1971)">
      <path d="M0 12.667V16.0004H3.33337L13.169 6.16468L9.83566 2.8313L0 12.667Z" ></path>
      <path d="M15.7399 2.33765L13.6643 0.262078C13.3176 -0.0845926 12.7531 -0.0845926 12.4065 0.262078L10.7798 1.88877L14.1132 5.22214L15.7398 3.59545C16.0866 3.24878 16.0866 2.68432 15.7399 2.33765Z" ></path>
    </g>
    <defs>
      <clipPath id="clip0_52741_1971">
        <rect width="16" height="16"></rect>
      </clipPath>
    </defs>
  </symbol>
  <symbol stroke="none" xmlns="http://www.w3.org/2000/svg" viewBox="0 0 16 16" id="external-link">
    <path fill-rule="evenodd" clip-rule="evenodd" d="M7.8028 9.13807L12.6647 4.27614V7.33333H13.9981V2H8.66473V3.33333H11.7219L6.86 8.19526L7.8028 9.13807ZM12.6667 12.6667V9.33333H11.3333V12.6667H3.33333V4.66667H6.66667V3.33333H3.33333C2.59695 3.33333 2 3.93029 2 4.66667V12.6667C2 13.403 2.59695 14 3.33333 14H11.3333C12.0697 14 12.6667 13.403 12.6667 12.6667Z"></path>
  </symbol>
  <symbol stroke="none" xmlns="http://www.w3.org/2000/svg" viewBox="0 0 16 16" id="filter">
    <path d="M15.2186 7.24534L13.6915 7.24534C13.3718 6.37519 12.5549 5.75366 11.5783 5.75366C10.6016 5.75366 9.78469 6.37519 9.46505 7.24534L0.763623 7.24534C0.355188 7.24534 0.0177866 7.58274 0.0177866 8.00894C0.0177866 8.43513 0.355189 8.77253 0.781382 8.77253L9.48281 8.77253C9.80245 9.64268 10.6193 10.2642 11.596 10.2642C12.5727 10.2642 13.3718 9.62492 13.6915 8.75478L15.2364 8.75478C15.6626 8.75478 16 8.41737 16 7.99118C16 7.56499 15.6448 7.24534 15.2186 7.24534Z"></path>
    <path d="M15.2186 12.999L6.37514 12.999C6.05549 12.1289 5.23862 11.5073 4.26193 11.5073C3.28524 11.5073 2.46837 12.1289 2.14872 12.999L0.763593 12.999C0.3374 12.999 -1.99793e-06 13.3364 -2.01046e-06 13.7448C-2.02352e-06 14.171 0.3374 14.5084 0.763593 14.5084L2.16648 14.5084C2.46837 15.3786 3.28524 16.0001 4.26193 16.0001C5.23862 16.0001 6.05549 15.3608 6.3929 14.4907L15.2364 14.4907C15.6448 14.5084 16 14.171 16 13.7271C16 13.3364 15.6448 12.999 15.2186 12.999Z" ></path>
    <path d="M0.763556 3.00111L4.83016 3.00111C5.14981 3.87126 5.96668 4.49279 6.94337 4.49279C7.92007 4.49279 8.71918 3.87126 9.05659 3.00111L15.2186 3.00111C15.6448 3.00111 16 2.66371 16 2.23752C16 1.81132 15.6448 1.47392 15.2186 1.47392L9.03883 1.47392C8.71918 0.621532 7.92007 -4.21713e-07 6.94337 -4.7269e-07C5.96668 -5.23666e-07 5.14981 0.621532 4.83016 1.49168L0.781315 1.49168C0.355121 1.49168 0.0177169 1.82908 0.0177169 2.25527C0.0177168 2.66371 0.337362 3.00111 0.763556 3.00111Z" ></path>
  </symbol>
  <symbol stroke="none" xmlns="http://www.w3.org/2000/svg" viewBox="0 0 16 16" id="gateway">
    <g clip-path="url(#clip0_52741_1917)">
      <g clip-path="url(#clip1_52741_1917)">
        <path d="M12.6875 7.53127C12.9466 7.53127 13.1563 7.32162 13.1563 7.06252C13.1563 4.21935 10.8432 1.875 8.00002 1.875C5.15685 1.875 2.84375 4.21935 2.84375 7.06252C2.84375 7.32162 3.05341 7.53127 3.3125 7.53127C3.5716 7.53127 3.78125 7.32162 3.78125 7.06252C3.78125 4.73617 5.67367 2.8125 8.00002 2.8125C10.3264 2.8125 12.2188 4.73617 12.2188 7.06252C12.2188 7.32162 12.4284 7.53127 12.6875 7.53127Z"></path>
        <path d="M8 3.75C6.19091 3.75 4.71875 5.25341 4.71875 7.0625C4.71875 7.32159 4.92841 7.53125 5.1875 7.53125C5.44659 7.53125 5.65625 7.32159 5.65625 7.0625C5.65625 5.77022 6.70772 4.6875 8 4.6875C9.29228 4.6875 10.3438 5.77022 10.3438 7.0625C10.3438 7.32159 10.5534 7.53125 10.8125 7.53125C11.0716 7.53125 11.2812 7.32159 11.2812 7.0625C11.2812 5.25341 9.80909 3.75 8 3.75V3.75Z"></path>
        <path d="M14.5626 7.53128C14.8216 7.53128 15.0313 7.32162 15.0313 7.06253C15.0313 3.18526 11.8773 0 8.00003 0C4.12276 0 0.96875 3.18526 0.96875 7.06253C0.96875 7.32162 1.17841 7.53128 1.4375 7.53128C1.6966 7.53128 1.90625 7.32162 1.90625 7.06253C1.90625 3.70251 4.64001 0.937504 8.00003 0.937504C11.36 0.937504 14.0938 3.70251 14.0938 7.06253C14.0938 7.32162 14.3035 7.53128 14.5626 7.53128Z"></path>
        <path d="M5.02283 15.9703C5.26546 16.0591 5.53508 15.9387 5.62661 15.6961L5.86418 15.0313H10.136L10.3736 15.6961C10.4636 15.936 10.7316 16.0611 10.9774 15.9703C11.2196 15.8792 11.3423 15.6091 11.2516 15.3665L8.62025 8.31826C9.08397 8.0881 9.40635 7.61432 9.40635 7.06251C9.40635 6.28707 8.77553 5.625 8.00009 5.625C7.22465 5.625 6.59384 6.28707 6.59384 7.06251C6.59384 7.61435 6.91621 8.08813 7.37993 8.31826L4.74858 15.3665C4.65798 15.6091 4.78067 15.8792 5.02283 15.9703V15.9703ZM6.21571 14.0938L6.56721 13.1563H9.43307L9.78457 14.0938H6.21571ZM7.27028 11.2813H8.72997L9.08147 12.2188H6.91874L7.27028 11.2813ZM7.62184 10.3438L8.00012 9.33486L8.37841 10.3438H7.62184Z"></path>
      </g>
    </g>
    <defs>
      <clipPath id="clip0_52741_1917">
        <rect width="16" height="16"></rect>
      </clipPath>
      <clipPath id="clip1_52741_1917">
        <rect width="16" height="16"></rect>
      </clipPath>
    </defs>
  </symbol>
  <symbol stroke="none" xmlns="http://www.w3.org/2000/svg" viewBox="0 0 17 16" id="search">
    <path fill-rule="evenodd" clip-rule="evenodd" d="M11.6601 9.7144H10.9337L10.6812 9.47243C11.5732 8.46831 12.1157 7.16658 12.1157 5.74033C12.1157 2.56991 9.45356 7.25455e-06 6.1694 7.25455e-06C2.88524 7.25455e-06 0.223145 2.56991 0.223145 5.74033C0.223145 8.91076 2.88524 11.4807 6.1694 11.4807C7.64682 11.4807 8.99433 10.9578 10.0345 10.0977L10.287 10.3397V11.0391L14.8592 15.4468L16.2231 14.13L11.6601 9.7144V9.7144ZM6.16928 9.7144C3.89507 9.7144 2.05264 7.93578 2.05264 5.74033C2.05264 3.54576 3.89507 1.76626 6.16928 1.76626C8.44258 1.76626 10.2859 3.54576 10.2859 5.74033C10.2859 7.93578 8.44258 9.7144 6.16928 9.7144V9.7144Z"></path>
  </symbol>
  <symbol stroke="none" xmlns="http://www.w3.org/2000/svg" viewBox="0 0 16 16" id="options">
    <path d="M3.69231 7.84615C3.69231 8.86576 2.86576 9.69231 1.84615 9.69231C0.826551 9.69231 0 8.86576 0 7.84615C0 6.82655 0.826551 6 1.84615 6C2.86576 6 3.69231 6.82655 3.69231 7.84615Z"></path>
    <path d="M9.84615 7.84615C9.84615 8.86576 9.0196 9.69231 8 9.69231C6.9804 9.69231 6.15385 8.86576 6.15385 7.84615C6.15385 6.82655 6.9804 6 8 6C9.0196 6 9.84615 6.82655 9.84615 7.84615Z"></path>
    <path d="M16 7.84615C16 8.86576 15.1734 9.69231 14.1538 9.69231C13.1342 9.69231 12.3077 8.86576 12.3077 7.84615C12.3077 6.82655 13.1342 6 14.1538 6C15.1734 6 16 6.82655 16 7.84615Z"></path>
  </symbol>
  <symbol fill='none' xmlns="http://www.w3.org/2000/svg" viewBox="0 0 16 16" id="tick">
    <path d="M1 9.23548L6.6 13.4872L15 2" stroke-width="1.7" stroke-linecap="round" stroke-linejoin="round" ></path>
  </symbol>
  <symbol fill="none" xmlns="http://www.w3.org/2000/svg" viewBox="0 0 17 17" id="close-circle">
    <g id="close-circle" clip-path="url(#clip0_1_15052)">
      <g id="Group">
        <path id="Vector" d="M14.5133 2.48678C11.1977 -0.828765 5.80266 -0.829092 2.48678 2.48678C-0.829092 5.80266 -0.828765 11.1974 2.48678 14.5133C5.80233 17.8292 11.1974 17.8292 14.5133 14.5133C17.8288 11.1974 17.8288 5.80233 14.5133 2.48678ZM11.8535 11.8535C11.5981 12.109 11.184 12.109 10.9286 11.8535L8.50004 9.42501L5.95606 11.969C5.70061 12.2244 5.28654 12.2244 5.03109 11.969C4.77565 11.7135 4.77565 11.2995 5.03109 11.044L7.57507 8.50004L5.14655 6.07152C4.89111 5.81607 4.89111 5.40167 5.14655 5.14655C5.402 4.89111 5.81607 4.89111 6.07152 5.14655L8.50004 7.57507L10.8128 5.26233C11.0682 5.00689 11.4823 5.00689 11.7377 5.26233C11.9932 5.51778 11.9932 5.93185 11.7377 6.1873L9.42501 8.50004L11.8535 10.9286C12.109 11.184 12.109 11.5981 11.8535 11.8535Z" fill="#EB5757"></path>
      </g>
    </g>
    <defs>
      <clipPath id="clip0_1_15052">
        <rect width="17" height="17" fill="white"></rect>
      </clipPath>
    </defs>
  </symbol>
  <symbol stroke="none" xmlns="http://www.w3.org/2000/svg" viewBox="0 0 16 16" id="privacy">
    <path fill-rule="evenodd" clip-rule="evenodd" d="M7.54545 16C3.18182 14.0561 1 12.1167 1 10.1818V2.90909C1 2.35084 1.21425 2.2211 1.80722 1.86203L1.80722 1.86203C1.98676 1.75331 2.20101 1.62357 2.45455 1.45455C2.57221 1.3761 5.04597 0 7.54545 0C9.72382 0 11.5455 0.727273 12.6364 1.45455C12.8899 1.62357 13.1042 1.75331 13.2837 1.86203C13.8767 2.2211 14.0909 2.35084 14.0909 2.90909C14.1052 3.06708 14.0982 6.42699 14.0937 8.57796L14.0937 8.58143C14.0921 9.31335 14.0909 9.90484 14.0909 10.1818C14.0909 12.1212 11.9091 14.0606 7.54545 16ZM12.6365 10.1817C12.6365 10.0142 12.637 9.73359 12.6379 9.27605L12.6408 7.85549L12.6431 6.62521C12.6458 5.00183 12.6451 3.60851 12.6435 3.17757L12.5436 3.11558C12.3084 2.96968 12.0019 2.77951 11.8297 2.66471C10.756 1.94894 9.1894 1.45446 7.54563 1.45446C5.97333 1.45446 3.93009 2.21902 3.26156 2.66471C3.08937 2.77951 2.78284 2.96967 2.54766 3.11557L2.45472 3.17325V10.1817C2.45472 11.2788 4.07589 12.7772 7.5463 14.4014C11.0163 12.7808 12.6365 11.283 12.6365 10.1817ZM9.94016 5.3038L6.81806 8.4259L5.1505 6.75835L4.12198 7.78686L6.81806 10.4829L10.9687 6.33232L9.94016 5.3038Z" ></path>
  </symbol>
  <symbol stroke="none" xmlns="http://www.w3.org/2000/svg" viewBox="0 0 16 16" id="sign-out">
    <path d="M11.0744 5.36868L13.1853 7.61314H5.30615V9.13972H13.1853L11.0744 11.3842L12.1873 12.4315L15.9999 8.37649L12.1873 4.3215L11.0744 5.36868Z"></path>
    <path d="M9.47892 10.5469H8.14802V12.4223H1.3309V4.3309H8.14802V6.20626H9.47892V3H0V13.7532H9.47892V10.5469Z"></path>
  </symbol>
  <symbol stroke="none" xmlns="http://www.w3.org/2000/svg" viewBox="0 0 16 16" id="locator">
    <path fill-rule="evenodd" clip-rule="evenodd" d="M0.666504 8.66666H2.03646C2.34389 11.4477 4.55209 13.6559 7.33317 13.9634V15.3333H8.6665V13.9634C11.4476 13.6559 13.6558 11.4477 13.9632 8.66666H15.3332V7.33332H13.9632C13.6558 4.55225 11.4476 2.34404 8.6665 2.03661V0.666656H7.33317V2.03661C4.55209 2.34404 2.34389 4.55225 2.03646 7.33332H0.666504V8.66666ZM3.33317 7.99999C3.33317 5.42266 5.42251 3.33332 7.99984 3.33332C10.5772 3.33332 12.6665 5.42266 12.6665 7.99999C12.6665 10.5773 10.5772 12.6667 7.99984 12.6667C5.42251 12.6667 3.33317 10.5773 3.33317 7.99999ZM7.99984 5.33332C9.4726 5.33332 10.6665 6.52723 10.6665 7.99999C10.6665 9.47275 9.4726 10.6667 7.99984 10.6667C6.52708 10.6667 5.33317 9.47275 5.33317 7.99999C5.33317 6.52723 6.52708 5.33332 7.99984 5.33332ZM6.6665 7.99999C6.6665 7.26361 7.26346 6.66666 7.99984 6.66666C8.73622 6.66666 9.33317 7.26361 9.33317 7.99999C9.33317 8.73637 8.73622 9.33332 7.99984 9.33332C7.26346 9.33332 6.6665 8.73637 6.6665 7.99999Z"></path>
  </symbol>
  <symbol stroke="none" xmlns="http://www.w3.org/2000/svg" viewBox="0 0 16 16" id="zoom-out">
    <rect y="7" width="16" height="2"></rect>
  </symbol>
  <symbol stroke="none" xmlns="http://www.w3.org/2000/svg" viewBox="0 0 16 16" id="zoom-in">
    <rect y="7" width="16" height="2"></rect>
    <rect x="7" width="2" height="16"></rect>
  </symbol>
  <symbol stroke="none" xmlns="http://www.w3.org/2000/svg" viewBox="0 0 16 16" id="location">
    <path d="M7.7946 0C4.59944 0 2 2.59944 2 5.79457C2 9.75982 7.1856 15.581 7.40638 15.8269C7.61376 16.0579 7.97582 16.0575 8.18282 15.8269C8.4036 15.581 13.5892 9.75982 13.5892 5.79457C13.5891 2.59944 10.9897 0 7.7946 0ZM7.7946 8.70998C6.18704 8.70998 4.87922 7.40213 4.87922 5.79457C4.87922 4.187 6.18707 2.87919 7.7946 2.87919C9.40213 2.87919 10.7099 4.18704 10.7099 5.7946C10.7099 7.40217 9.40213 8.70998 7.7946 8.70998Z"></path>
  </symbol>
</svg>